<svg width="1074" height="264" viewBox="0 0 1074 264" fill="none" xmlns="http://www.w3.org/2000/svg">
<g clip-path="url(#clip0_17_81)">
<path d="M663.207 54.5625C678.241 54.5625 690.429 42.3482 690.429 27.2812C690.429 12.2142 678.241 0 663.207 0C648.174 0 635.986 12.2142 635.986 27.2812C635.986 42.3482 648.174 54.5625 663.207 54.5625Z" fill="#94C47E"/>
<path d="M361.352 22.8487H255.521C253.099 22.8487 251.098 24.8539 251.098 27.2812C251.098 29.7086 253.047 31.7138 255.521 31.7138H361.352C363.774 31.7138 365.775 29.7086 365.775 27.2812C365.775 24.8539 363.774 22.8487 361.352 22.8487Z" fill="#5FB7B5"/>
<path d="M619.137 27.2812C619.137 24.8539 617.137 22.8487 614.715 22.8487H463.919C461.497 22.8487 459.496 24.8539 459.496 27.2812C459.496 29.7086 461.497 31.7138 463.919 31.7138H614.715C617.137 31.7138 619.137 29.7086 619.137 27.2812Z" fill="#94C47E"/>
<path d="M433.433 159.097C433.433 138.2 450.387 121.209 471.237 121.209H487.77C495.405 121.209 501.67 127.436 501.67 135.14V214.028C501.67 241.626 524.048 264.053 551.585 264.053H578.806C592.127 264.053 604.658 258.829 614.083 249.383H614.135C645.411 269.963 687.743 268.749 717.702 245.478C739.816 228.276 752.506 202.419 752.506 174.61C752.506 164.637 744.45 156.564 734.498 156.564C724.547 156.564 716.491 164.637 716.491 174.61C716.491 191.232 708.909 206.694 695.641 216.983C679.845 229.278 658.205 231.231 640.567 222.893L726.39 136.881C733.445 129.81 733.445 118.412 726.39 111.341C709.541 94.4553 687.112 85.1681 663.313 85.1681C639.514 85.1681 617.084 94.4553 600.183 111.341C582.228 129.335 572.751 154.189 574.172 179.623C575.068 195.507 580.175 210.704 588.757 223.738L588.652 223.843C586.019 226.482 582.544 227.906 578.859 227.906H551.637C544.003 227.906 537.737 221.68 537.737 213.976V135.087C537.737 107.489 515.36 85.0626 487.823 85.0626H471.29C452.546 85.0626 435.434 92.1863 422.429 103.743C413.267 92.3446 399.262 85.0626 383.571 85.0626H367.039C353.191 85.0626 340.291 88.9674 329.234 95.6162V85.0626H275.529V121.156H293.22V189.966C293.22 210.862 276.266 227.854 255.416 227.854H238.883C231.249 227.854 224.983 221.627 224.983 213.923V85.1153H171.278V121.209H188.969V190.019C188.969 210.915 172.015 227.906 151.165 227.906H67.6055C59.9709 227.906 53.7053 221.68 53.7053 213.976V0H0V36.0935H17.6911V213.976C17.6911 241.573 40.0683 264 67.6055 264H151.217C169.961 264 187.073 256.876 200.078 245.32C209.24 256.718 223.245 264 238.936 264H255.469C269.316 264 282.216 260.095 293.273 253.446V264H329.287V159.097C329.287 138.2 346.241 121.209 367.091 121.209H383.624C391.259 121.209 397.524 127.436 397.524 135.14V264H433.538V159.097H433.433ZM610.081 177.565C609.239 162.421 614.873 147.54 625.561 136.828C635.618 126.75 648.991 121.209 663.207 121.209C671.211 121.209 678.898 122.95 685.901 126.275L614.978 197.354C612.082 191.232 610.397 184.584 610.029 177.565H610.081Z" fill="#726FAA"/>
<path d="M234.197 27.2812C234.197 42.3202 222.034 54.5625 206.976 54.5625C191.917 54.5625 179.755 42.373 179.755 27.2812C179.755 12.1895 191.917 0 206.976 0C222.034 0 234.197 12.1895 234.197 27.2812Z" fill="#726FAA"/>
<path d="M442.647 27.2812C442.647 42.3202 430.485 54.5625 415.426 54.5625C400.368 54.5625 388.205 42.373 388.205 27.2812C388.205 12.1895 400.368 0 415.426 0C430.485 0 442.647 12.1895 442.647 27.2812Z" fill="#5FB7B5"/>
<path d="M788.941 259.356V138.886H865.76V155.297H807.211V190.494H857.178V206.746H807.211V242.945H865.76V259.356H788.941Z" fill="#726FAA"/>
<path d="M957.217 248.011C949.635 255.61 938.631 259.356 926.153 259.356H883.978V138.886H926.153C938.631 138.886 949.635 142.633 957.217 150.231C970.223 163.265 969.38 180.837 969.38 198.251C969.38 215.664 970.223 234.977 957.217 248.011ZM944.739 163.424C939.684 157.83 932.945 155.297 924.31 155.297H902.196V242.945H924.31C932.892 242.945 939.684 240.413 944.739 234.819C951.004 227.906 951.162 214.873 951.162 198.303C951.162 181.734 951.004 170.389 944.739 163.476V163.424Z" fill="#726FAA"/>
<path d="M1030.83 260.359C1006.34 260.359 987.808 243.631 987.808 218.725V138.886H1006.03V217.88C1006.03 233.975 1015.82 243.948 1030.83 243.948C1045.83 243.948 1055.78 233.975 1055.78 217.88V138.886H1074V218.725C1074 243.579 1055.26 260.359 1030.77 260.359H1030.83Z" fill="#726FAA"/>
</g>
<defs>
<clipPath id="clip0_17_81">
<rect width="1074" height="264" fill="white"/>
</clipPath>
</defs>
</svg>
